<?xml version="1.0" encoding="utf-8"?>
<!-- Generator: Adobe Illustrator 23.0.1, SVG Export Plug-In . SVG Version: 6.00 Build 0)  -->
<svg version="1.1" id="圖層_1" xmlns="http://www.w3.org/2000/svg" xmlns:xlink="http://www.w3.org/1999/xlink" x="0px" y="0px"
	 viewBox="0 0 466.8 466.8" style="enable-background:new 0 0 466.8 466.8;" xml:space="preserve">
<style type="text/css">
	.st0{fill:#FFFFFF;}
	.st1{fill:#0078FF;}
</style>
<g>
	<path class="st0" d="M374.8,375.8c-36.3,36.1-86.3,58.4-141.4,58.4c-110.7,0-200.8-90.1-200.8-200.8c0-27.1,5.4-53,15.2-76.6
		l55,141.2l0,0.1l0.2-0.1l0.2,0.1l0-0.1L146,188.1L188.9,298l0,0.1l0.2-0.1l0.2,0.1l0-0.1l74.9-192.2h-35.3L189.1,208L146.4,98.5
		h-0.7L103,208L54.5,83.6c-8.4,10.1-16,20.8-22.7,32.2C11.6,150.4,0,190.6,0,233.4c0,128.7,104.7,233.4,233.4,233.4
		c59,0,113-22,154.2-58.3L374.8,375.8z"/>
	<path class="st1" d="M233.4,0C173.1,0,118,23,76.5,60.7l12.8,32.9c36.5-37.6,87.6-61,144-61c110.7,0,200.8,90.1,200.8,200.8
		c0,28.2-5.9,55.1-16.4,79.4l-54.9-140.3l0-0.1l-0.2,0.1l-0.2-0.1l0,0.1l-42.8,109.9l-42.8-109.9l0-0.1l-0.2,0.1l-0.2-0.1l0,0.1
		l-74.6,191.4h35.3l39.6-101.5l42.7,109h0.7l42.7-109.2l47.6,123.3c8.6-10,16.4-20.8,23.3-32.2c21.1-35.1,33.2-76.1,33.2-119.8
		C466.8,104.7,362.1,0,233.4,0"/>
</g>
<g>
</g>
<g>
</g>
<g>
</g>
<g>
</g>
<g>
</g>
<g>
</g>
<g>
</g>
<g>
</g>
<g>
</g>
<g>
</g>
<g>
</g>
<g>
</g>
<g>
</g>
<g>
</g>
<g>
</g>
</svg>
